<svg xmlns="http://www.w3.org/2000/svg" xmlns:xlink="http://www.w3.org/1999/xlink" viewBox="0 0 840.51 177.64"><defs><style>.cls-1{fill:url(#linear-gradient);}.cls-2{fill:url(#linear-gradient-2);}.cls-3{fill:url(#linear-gradient-3);}.cls-4{fill:url(#linear-gradient-4);}.cls-5{fill:#fff;}.cls-6{fill:url(#linear-gradient-5);}.cls-7{fill:url(#linear-gradient-6);}.cls-8{fill:url(#linear-gradient-7);}.cls-9{fill:url(#linear-gradient-8);}.cls-10{fill:url(#linear-gradient-9);}.cls-11{fill:url(#linear-gradient-10);}.cls-12{fill:url(#linear-gradient-11);}.cls-13{fill:url(#linear-gradient-12);}.cls-14{fill:url(#linear-gradient-13);}.cls-15{fill:url(#linear-gradient-14);}.cls-16{fill:url(#linear-gradient-15);}</style><linearGradient id="linear-gradient" x1="88.88" y1="16.63" x2="88.88" y2="1.7" gradientUnits="userSpaceOnUse"><stop offset="0.03" stop-color="#893427"/><stop offset="0.12" stop-color="#964328"/><stop offset="0.38" stop-color="#b96c2a"/><stop offset="0.51" stop-color="#c77c2b"/><stop offset="0.65" stop-color="#ba6d2a"/><stop offset="0.9" stop-color="#974428"/><stop offset="1" stop-color="#893427"/></linearGradient><linearGradient id="linear-gradient-2" x1="-12174.31" y1="16.63" x2="-12174.31" y2="1.7" gradientTransform="matrix(-1, 0, 0, 1, -11422.68, 0)" xlink:href="#linear-gradient"/><linearGradient id="linear-gradient-3" x1="-3337.89" y1="1253.79" x2="-3337.89" y2="1238.86" gradientTransform="translate(-2586.26 1315.38) rotate(180)" xlink:href="#linear-gradient"/><linearGradient id="linear-gradient-4" x1="-8747.55" y1="1253.79" x2="-8747.55" y2="1238.86" gradientTransform="matrix(1, 0, 0, -1, 8836.42, 1315.38)" xlink:href="#linear-gradient"/><linearGradient id="linear-gradient-5" x1="311.17" y1="-125.48" x2="528.77" y2="209.59" gradientUnits="userSpaceOnUse"><stop offset="0" stop-color="#9f9ca3"/><stop offset="0.05" stop-color="#a19fa5"/><stop offset="0.08" stop-color="#a9a7ad"/><stop offset="0.11" stop-color="#b7b6bb"/><stop offset="0.14" stop-color="#c9cacd"/><stop offset="0.15" stop-color="#d6d8da"/><stop offset="0.19" stop-color="#d4d6d8"/><stop offset="0.22" stop-color="#cdcfd1"/><stop offset="0.23" stop-color="#c0c2c4"/><stop offset="0.24" stop-color="#aeb0b2"/><stop offset="0.26" stop-color="#96989a"/><stop offset="0.27" stop-color="#7a7c7e"/><stop offset="0.27" stop-color="#6d6f71"/><stop offset="0.31" stop-color="#707274"/><stop offset="0.33" stop-color="#787a7c"/><stop offset="0.34" stop-color="#7f8183"/><stop offset="0.36" stop-color="#7b7d7f"/><stop offset="0.37" stop-color="#6e7072"/><stop offset="0.39" stop-color="#5a5a5d"/><stop offset="0.4" stop-color="#4c4c4f"/><stop offset="0.55" stop-color="#c6c8ca"/><stop offset="0.66" stop-color="#85838a"/><stop offset="0.83" stop-color="#d3d3d7"/><stop offset="0.93" stop-color="#88878d"/><stop offset="1" stop-color="#a6a3b2"/></linearGradient><linearGradient id="linear-gradient-6" x1="165.45" y1="188.68" x2="673.89" y2="-104.87" gradientUnits="userSpaceOnUse"><stop offset="0" stop-color="#252422"/><stop offset="0.05" stop-color="#272625"/><stop offset="0.07" stop-color="#2f2f2d"/><stop offset="0.1" stop-color="#3c3c3c"/><stop offset="0.12" stop-color="#4f5050"/><stop offset="0.14" stop-color="#67696b"/><stop offset="0.14" stop-color="#6d6f71"/><stop offset="0.25" stop-color="#707274"/><stop offset="0.31" stop-color="#787a7c"/><stop offset="0.34" stop-color="#7f8183"/><stop offset="0.35" stop-color="#7b7d7f"/><stop offset="0.36" stop-color="#6e7072"/><stop offset="0.37" stop-color="#595a5c"/><stop offset="0.38" stop-color="#3b3c3e"/><stop offset="0.39" stop-color="#151618"/><stop offset="0.4" stop-color="#000002"/><stop offset="0.53" stop-color="#717375"/><stop offset="0.55" stop-color="#6d6f71"/><stop offset="0.57" stop-color="#626466"/><stop offset="0.59" stop-color="#4e5052"/><stop offset="0.6" stop-color="#333537"/><stop offset="0.62" stop-color="#111315"/><stop offset="0.62" stop-color="#101214"/><stop offset="0.72" stop-color="#85838a"/><stop offset="0.82" stop-color="#88878d"/><stop offset="1" stop-color="#0a0a0c"/></linearGradient><linearGradient id="linear-gradient-7" x1="583.63" y1="47.42" x2="583.63" y2="31.14" gradientUnits="userSpaceOnUse"><stop offset="0" stop-color="#0d244b"/><stop offset="0.08" stop-color="#14305e"/><stop offset="0.26" stop-color="#214681"/><stop offset="0.4" stop-color="#295496"/><stop offset="0.49" stop-color="#2c599e"/><stop offset="0.59" stop-color="#2a5699"/><stop offset="0.72" stop-color="#254c8a"/><stop offset="0.85" stop-color="#1b3d71"/><stop offset="0.99" stop-color="#0f274f"/><stop offset="1" stop-color="#0e264d"/></linearGradient><linearGradient id="linear-gradient-8" x1="675.46" y1="47.43" x2="675.46" y2="31.15" xlink:href="#linear-gradient-7"/><linearGradient id="linear-gradient-9" x1="542.97" y1="47.42" x2="542.97" y2="31.14" xlink:href="#linear-gradient-7"/><linearGradient id="linear-gradient-10" x1="634.62" y1="47.42" x2="634.62" y2="31.14" xlink:href="#linear-gradient-7"/><linearGradient id="linear-gradient-11" x1="715.69" y1="47.42" x2="715.69" y2="31.14" xlink:href="#linear-gradient-7"/><linearGradient id="linear-gradient-12" x1="246.25" y1="47.42" x2="246.25" y2="31.14" gradientUnits="userSpaceOnUse"><stop offset="0" stop-color="#611e1e"/><stop offset="0.51" stop-color="#e03828"/><stop offset="1" stop-color="#611e1e"/></linearGradient><linearGradient id="linear-gradient-13" x1="294.78" y1="47.42" x2="294.78" y2="31.14" xlink:href="#linear-gradient-12"/><linearGradient id="linear-gradient-14" x1="195.23" y1="47.42" x2="195.23" y2="31.14" xlink:href="#linear-gradient-12"/><linearGradient id="linear-gradient-15" x1="142.46" y1="31.14" x2="142.46" y2="47.42" xlink:href="#linear-gradient-12"/></defs><g id="Layer_2" data-name="Layer 2"><g id="Layer_2-2" data-name="Layer 2"><path class="cls-1" d="M129.86,2.71s-35.2-1.28-42.75-1-12.38,1-12.38,1l15.91,1s-29.57,0-29.09,2.25c0,0-20.89.32-26.67,3.05H58.82S37,12.2,23.3,12.52s-23.3,0-23.3,0,24.43,2.41,40.34,1.28,41.14.12,43.87.3l-2.89,2.44s14.79-1.93,26.36-2.25c0,0-2.21,2.89,3.39,2.25s66.68-2.25,66.68-2.25Z"/><path class="cls-2" d="M710.65,2.71s35.19-1.28,42.75-1,12.37,1,12.37,1l-15.9,1s29.56,0,29.08,2.25c0,0,20.89.32,26.68,3.05h-24s21.86,3.22,35.52,3.54,23.31,0,23.31,0-24.43,2.41-40.34,1.28-41.15.12-43.88.3l2.89,2.44s-14.78-1.93-26.35-2.25c0,0,2.21,2.89-3.4,2.25s-66.67-2.25-66.67-2.25Z"/><path class="cls-3" d="M710.65,75.5s35.19,1.28,42.75,1,12.37-1,12.37-1l-15.9-1s29.56,0,29.08-2.25c0,0,20.89-.32,26.68-3h-24S803.54,66,817.2,65.69s23.31,0,23.31,0-24.43-2.41-40.34-1.28-41.15-.12-43.88-.3l2.89-2.43s-14.78,1.92-26.35,2.25c0,0,2.21-2.9-3.4-2.25s-66.67,2.25-66.67,2.25Z"/><path class="cls-4" d="M129.86,75.5s-35.2,1.28-42.75,1-12.38-1-12.38-1l15.91-1s-29.57,0-29.09-2.25c0,0-20.89-.32-26.67-3H58.82S37,66,23.3,65.69s-23.3,0-23.3,0,24.43-2.41,40.34-1.28,41.14-.12,43.87-.3l-2.89-2.43s14.79,1.92,26.36,2.25c0,0-2.21-2.9,3.39-2.25s66.68,2.25,66.68,2.25Z"/><path class="cls-5" d="M156.89,145.5q8.33,3.69,4.94,13.11-3.48,9.64-13.58,14.64a44,44,0,0,1-19.81,4.39q-11.64,0-19.41-4.65c-2.18-1.3-3.64-2-4.41-2a7.83,7.83,0,0,0-3.48,1.6l-1-.64,12.58-16,1.07.56a4,4,0,0,0-.54.91,4.11,4.11,0,0,0,.8,4.3c1.41,1.68,3.79,3.07,7.15,4.15a34.39,34.39,0,0,0,10.7,1.63,26.15,26.15,0,0,0,9.84-1.79q5.67-2.25,7.41-7.09c1-2.79.62-4.89-1.17-6.32s-4.93-2.13-9.41-2.13a19.73,19.73,0,0,0-5.86.61,5.25,5.25,0,0,0-2.85,2.39H128.5l5.25-14.55h1.36c-.13,1.3.2,2.15,1,2.54s2.52.58,5.22.58a21.94,21.94,0,0,0,10.48-2.25,9.9,9.9,0,0,0,4.92-5.52q1.33-3.69-1.22-5.69t-8.65-2a37.15,37.15,0,0,0-16.52,3.86c-2.56,1.27-4.09,2.61-4.59,4a4.1,4.1,0,0,0-.15,1.95l-1.38.87-5.36-12.29,1.38-.87a4.66,4.66,0,0,0,2.07.74,6.41,6.41,0,0,0,2.66-1q13.33-7.33,26.54-7.34,9.19,0,14.17,3.69a9.53,9.53,0,0,1,3.68,5.52,13.9,13.9,0,0,1-.75,7.86Q165.79,141.11,156.89,145.5Z"/><path class="cls-5" d="M183.73,138.72,189.41,123h1.36a4.71,4.71,0,0,0,.14,2.08c.17.32.56.48,1.15.48a7.2,7.2,0,0,0,1.26-.17l4-1,.93-2.56a2.63,2.63,0,0,0,.12-2,2.76,2.76,0,0,0-1.72-1.13l.5-1.39h17.76l-.5,1.39a6.74,6.74,0,0,0-2.53,1.11,4.49,4.49,0,0,0-1.33,2L192.47,172a2.67,2.67,0,0,0-.13,2.05,2.73,2.73,0,0,0,1.72,1.13l-.5,1.39H175.8l.5-1.39a6.65,6.65,0,0,0,2.53-1.13,4.55,4.55,0,0,0,1.33-2.05l13.52-37.52-4.36,1a6.1,6.1,0,0,0-2.39,1,8.69,8.69,0,0,0-1.84,2.21Z"/><path class="cls-5" d="M267.75,127.08H231.49a3.91,3.91,0,0,0-2.22.6,7.24,7.24,0,0,0-1.89,2.18H226l5.52-15.32h1.36a3.21,3.21,0,0,0,.32,2.18,2.21,2.21,0,0,0,1.79.59h46a4,4,0,0,0,2.22-.59,7.37,7.37,0,0,0,1.89-2.18h1.36l-4.07,11.32-42,43.92a16,16,0,0,0-2.72,3.3q-.47,1.3,1.62,2.13l-.5,1.39H218.05l.5-1.39a11.28,11.28,0,0,0,3.64-1.65,32.43,32.43,0,0,0,4.19-3.78Z"/><path class="cls-5" d="M298.66,144.8l-5.39,15h-1.36a3.35,3.35,0,0,0-.32-2.18,2.17,2.17,0,0,0-1.79-.6H279.32a3.82,3.82,0,0,0-2.2.63,6.84,6.84,0,0,0-1.86,2.15h-1.37l5.4-15h1.36A3,3,0,0,0,281,147a2.22,2.22,0,0,0,1.81.62h10.75a4.06,4.06,0,0,0,2.27-.6,6.21,6.21,0,0,0,1.81-2.18Z"/><path class="cls-5" d="M291.66,173.16,304.3,159l1,.61a11.46,11.46,0,0,0-.87,1.69q-.62,1.74,1.48,3.48a13.92,13.92,0,0,0,5,2.36,23.14,23.14,0,0,0,6.48.94,26.05,26.05,0,0,0,13.5-3.78,26.93,26.93,0,0,0,7-6,37.9,37.9,0,0,0,5.26-9.13,44.8,44.8,0,0,1-10.73,5.63,33.39,33.39,0,0,1-10.82,1.71q-9.24,0-14.23-4.47a11,11,0,0,1-3.49-6.64,17.45,17.45,0,0,1,1.06-8.65q3.38-9.37,13-15a40.39,40.39,0,0,1,20.7-5.47q12.35,0,17.06,6.34a16.89,16.89,0,0,1,3.05,10.68,40.09,40.09,0,0,1-2.52,13.07,47.24,47.24,0,0,1-16.45,22.42,42.19,42.19,0,0,1-25.72,8.86,35.1,35.1,0,0,1-8.41-.89,35.68,35.68,0,0,1-8-3.24,5.45,5.45,0,0,0-2.47-.82,3.18,3.18,0,0,0-1.65.56c-.49.32-.84.54-1,.65ZM334.8,126A21.94,21.94,0,0,0,323,129.3a13.59,13.59,0,0,0-5.94,7q-1.53,4.26.9,7,2.86,3.27,9.43,3.26a21.79,21.79,0,0,0,11.82-3.26,13.49,13.49,0,0,0,5.89-6.9c1.05-2.92.77-5.3-.85-7.12Q341.47,126.09,334.8,126Z"/><path class="cls-5" d="M409.66,145.5q8.34,3.69,5,13.11-3.47,9.64-13.56,14.64a44,44,0,0,1-19.81,4.39q-11.64,0-19.42-4.65-3.25-2-4.41-2a7.76,7.76,0,0,0-3.47,1.6l-1-.64,12.56-16,1.07.56a4,4,0,0,0-.54.91,4.13,4.13,0,0,0,.8,4.3c1.41,1.68,3.8,3.07,7.16,4.15a34.39,34.39,0,0,0,10.7,1.63,26.11,26.11,0,0,0,9.84-1.79q5.67-2.25,7.41-7.09c1-2.79.6-4.89-1.19-6.32s-4.92-2.13-9.41-2.13a19.73,19.73,0,0,0-5.86.61,5.23,5.23,0,0,0-2.84,2.39h-1.36l5.22-14.55h1.37c-.13,1.3.2,2.15,1,2.54s2.52.58,5.22.58a21.94,21.94,0,0,0,10.48-2.25,10,10,0,0,0,4.92-5.52q1.32-3.69-1.24-5.69t-8.65-2a37.11,37.11,0,0,0-16.51,3.86c-2.56,1.27-4.08,2.61-4.58,4a4.1,4.1,0,0,0-.15,1.95L377,137l-5.38-12.29,1.38-.87a4.65,4.65,0,0,0,2.08.74,6.43,6.43,0,0,0,2.65-1q13.33-7.33,26.53-7.34,9.19,0,14.18,3.69a9.53,9.53,0,0,1,3.68,5.52,13.8,13.8,0,0,1-.74,7.86Q418.56,141.11,409.66,145.5Z"/><path class="cls-5" d="M469.12,144.89q11.76,3.44,8,13.94-2.53,7.08-9.92,12.34-9.06,6.47-24.73,6.47-10.69,0-16.5-3.17a10.76,10.76,0,0,1-5.1-6.3,14.25,14.25,0,0,1,.39-9.3q3.79-10.55,18-14-9-4.21-5.93-12.68A20.82,20.82,0,0,1,441.78,122q8.52-5.73,22.67-5.73,9.87,0,15.43,3a9.84,9.84,0,0,1,4.55,5.12,10.92,10.92,0,0,1-.28,7.78Q481.11,140.67,469.12,144.89Zm-16.78,4.86a26.31,26.31,0,0,0-12.65,2.88,11,11,0,0,0-5.37,6.05q-1.49,4.14,1.65,6.51T446,167.56a26.34,26.34,0,0,0,12.77-2.87,11,11,0,0,0,5.33-5.93c1-2.84.5-5-1.55-6.61S457.11,149.78,452.34,149.75ZM461,125.56a24.17,24.17,0,0,0-10.18,1.94c-2.8,1.28-4.6,3-5.39,5.23a4,4,0,0,0,1.66,5.21q2.83,1.91,8.86,1.91a24.89,24.89,0,0,0,10.26-1.91c2.82-1.27,4.62-3,5.38-5.12s.31-4.07-1.54-5.35S465.21,125.56,461,125.56Z"/><path class="cls-5" d="M504.72,144.8l-5.38,15H498a3.27,3.27,0,0,0-.33-2.18,2.15,2.15,0,0,0-1.78-.6H485.39a3.85,3.85,0,0,0-2.21.63,6.84,6.84,0,0,0-1.86,2.15H480l5.38-15h1.36A3.06,3.06,0,0,0,487,147a2.23,2.23,0,0,0,1.81.62H499.6a4,4,0,0,0,2.27-.6,6.21,6.21,0,0,0,1.81-2.18Z"/><path class="cls-5" d="M553.49,145.5q8.34,3.69,5,13.11-3.47,9.64-13.56,14.64a43.9,43.9,0,0,1-19.8,4.39q-11.64,0-19.42-4.65-3.26-2-4.41-2a7.76,7.76,0,0,0-3.47,1.6l-1-.64,12.55-16,1.08.56a3.4,3.4,0,0,0-.54.91,4.11,4.11,0,0,0,.8,4.3c1.41,1.68,3.8,3.07,7.16,4.15a34.43,34.43,0,0,0,10.7,1.63,26.11,26.11,0,0,0,9.84-1.79q5.67-2.25,7.4-7.09c1-2.79.61-4.89-1.18-6.32s-4.93-2.13-9.42-2.13a19.78,19.78,0,0,0-5.86.61,5.23,5.23,0,0,0-2.84,2.39h-1.36l5.22-14.55h1.36c-.13,1.3.2,2.15,1,2.54s2.52.58,5.22.58a21.87,21.87,0,0,0,10.47-2.25A9.9,9.9,0,0,0,553.3,134q1.32-3.69-1.24-5.69t-8.65-2a37.08,37.08,0,0,0-16.51,3.86c-2.56,1.27-4.08,2.61-4.58,4a4.1,4.1,0,0,0-.15,1.95l-1.38.87-5.38-12.29,1.37-.87a4.73,4.73,0,0,0,2.08.74,6.41,6.41,0,0,0,2.66-1q13.32-7.33,26.52-7.34,9.19,0,14.18,3.69a9.59,9.59,0,0,1,3.69,5.52,13.88,13.88,0,0,1-.73,7.86Q562.39,141.11,553.49,145.5Z"/><path class="cls-5" d="M560.49,169.57l15.22-13.82.83.78a9.93,9.93,0,0,0-1,1.91c-.53,1.48.09,2.95,1.86,4.43q5.48,4.69,14.08,4.69a21.65,21.65,0,0,0,11.12-2.74,15.46,15.46,0,0,0,7-8.23q1.73-4.83-1.1-7.7t-9.3-2.87a30.7,30.7,0,0,0-9.56,1.56c-3.2,1-5,2.16-5.44,3.34a3.51,3.51,0,0,0,0,1.74l-1.35.91-9.48-15.37,1.27-1a4,4,0,0,0,.54,0c1.36,0,2.36-.88,3-2.65l4.5-12.55a2.92,2.92,0,0,0,.16-2.17,2.52,2.52,0,0,0-1.7-1.13l.5-1.39h46.07a3.9,3.9,0,0,0,2.2-.59,8,8,0,0,0,1.91-2.18h1.36l-5.61,15.67h-1.37a3.48,3.48,0,0,0-.34-2.18,2.11,2.11,0,0,0-1.77-.6H590.84l-4.57,12.77a44,44,0,0,1,17.59-3.56q12.14,0,17,5.77,4.51,5.34,1.37,14.12a29.94,29.94,0,0,1-8.17,12q-9.92,9.12-25.89,9.12-10.3,0-16.42-3.74c-1-.61-2.59-1.73-4.75-3.39a4.62,4.62,0,0,0-2.85-1.08,8.18,8.18,0,0,0-2.87,1Z"/><path class="cls-5" d="M675.18,144.89q11.76,3.44,8,13.94-2.53,7.08-9.91,12.34-9.06,6.47-24.73,6.47-10.69,0-16.5-3.17a10.77,10.77,0,0,1-5.11-6.3,14.25,14.25,0,0,1,.39-9.3q3.78-10.55,18-14-9-4.21-5.93-12.68A20.72,20.72,0,0,1,647.81,122q8.52-5.73,22.66-5.73,9.88,0,15.44,3a9.8,9.8,0,0,1,4.55,5.12,10.86,10.86,0,0,1-.27,7.78Q687.16,140.67,675.18,144.89Zm-16.78,4.86a26.28,26.28,0,0,0-12.65,2.88,11.05,11.05,0,0,0-5.37,6.05c-1,2.76-.43,4.93,1.66,6.51s5.46,2.37,10.07,2.37a26.34,26.34,0,0,0,12.77-2.87,11,11,0,0,0,5.33-5.93c1-2.84.5-5-1.56-6.61S663.17,149.78,658.4,149.75Zm8.66-24.19a24.2,24.2,0,0,0-10.18,1.94c-2.79,1.28-4.58,3-5.37,5.23a4,4,0,0,0,1.65,5.21c1.9,1.27,4.85,1.91,8.87,1.91a24.89,24.89,0,0,0,10.26-1.91q4.23-1.91,5.38-5.12,1.23-3.44-1.55-5.35T667.06,125.56Z"/><path class="cls-5" d="M741.19,127.08H704.93a3.86,3.86,0,0,0-2.21.6,7.11,7.11,0,0,0-1.89,2.18h-1.36L705,114.54h1.36a3.26,3.26,0,0,0,.33,2.18,2.21,2.21,0,0,0,1.79.59h46a4,4,0,0,0,2.22-.59,7.51,7.51,0,0,0,1.89-2.18h1.36l-4,11.32L714,169.78a15.75,15.75,0,0,0-2.71,3.3c-.31.87.23,1.58,1.63,2.13l-.5,1.39H691.6l.49-1.39a11.28,11.28,0,0,0,3.64-1.65,33.1,33.1,0,0,0,4.19-3.78Z"/><polygon class="cls-6" points="732.55 77.25 553.46 77.25 496.49 63.32 430.56 47.2 421.28 44.93 411.99 47.2 346.06 63.32 289.09 77.25 110 77.25 167.01 63.32 275.47 63.32 376.69 38.57 280 14.93 173.4 14.93 116.41 1 293.62 1 350.6 14.93 411.99 29.94 421.27 32.21 430.56 29.94 491.94 14.93 548.92 1 726.14 1 669.15 14.93 562.54 14.93 465.85 38.57 567.08 63.32 675.54 63.32 732.55 77.25"/><path class="cls-7" d="M740.86,78.25l-187.64,0L421.28,46,289.09,78.25H101.69L167,62.32H275.35l97.13-23.75-92.6-22.64H173.28l-.12,0L108.11,0,293.86,0,421.27,31.18,548.92,0H734.44L669.15,15.93H562.66l-92.6,22.64L567.2,62.32H675.66l.12,0Zm-187.28-2H724.24L675.42,64.32H567l-.12,0L461.64,38.57l100.9-24.64H669L717.84,2H549L421.27,33.24,293.5,2H124.71l48.81,11.93h106.6l.12,0L380.9,38.57,275.47,64.32H167.13L118.31,76.25H289L421.28,43.9Z"/><path class="cls-8" d="M599.2,31.14H584.72l-.06,0,0,0h-3.91l1.82,1.35-23.4,14.93h10.33l-.93-1.22,4.78-3.36h16.85L592,45.59l-2.48,1.83h18.58Zm-22.49,9.35L585,34.63l3.71,5.86Z"/><path class="cls-9" d="M673.09,34.49h0a1.08,1.08,0,0,0,1,1.53h15.31a3,3,0,0,1,2.77,4.27l-1.31,2.93a7.1,7.1,0,0,1-6.49,4.21H654.67l1.4-3.13h19.47a1.74,1.74,0,0,0,1.59-1h0a1.08,1.08,0,0,0-1-1.53H660.79a2.32,2.32,0,0,1-2.12-3.26l1.25-2.79a7.63,7.63,0,0,1,7-4.53h29.34l-1.09,2.44H674.48A1.51,1.51,0,0,0,673.09,34.49Z"/><polygon class="cls-10" points="564.35 32.77 558.69 45.42 559.86 47.42 543.52 47.42 545.8 45.44 547.95 40.63 536.66 40.63 534.54 45.4 535.73 47.42 519.38 47.42 521.6 45.51 527.2 32.97 525.8 31.14 542.49 31.14 540.11 32.91 538.06 37.5 549.35 37.5 551.33 33.06 549.86 31.14 566.55 31.14 564.35 32.77"/><path class="cls-11" d="M656.63,31.14l-2.18,1.61-5.2,11.66a5.1,5.1,0,0,1-4.66,3H615.82a3.2,3.2,0,0,1-2.93-4.51l4.37-9.78-1.16-2h16.61L630.2,33l-4.47,10a.91.91,0,0,0,.84,1.28h14.69A3,3,0,0,0,644,42.53L648.22,33l-1.12-1.9Z"/><polygon class="cls-12" points="734.08 31.14 732.99 33.58 721.71 33.58 716.44 45.4 717.63 47.42 701.28 47.42 703.5 45.51 708.83 33.58 697.3 33.58 698.39 31.14 734.08 31.14"/><polygon class="cls-13" points="255.13 38 267.75 47.42 246.94 47.42 248.63 46.16 243.31 42.19 230.97 46.57 232.12 47.42 218.01 47.42 219.39 46.93 239.91 39.65 228.51 31.14 249.36 31.14 247.65 32.41 251.73 35.46 263.93 31.14 274.48 31.14 255.13 38"/><polygon class="cls-14" points="303.66 38 316.28 47.42 295.47 47.42 297.16 46.16 291.84 42.19 279.5 46.57 280.65 47.42 266.54 47.42 267.92 46.93 267.93 46.93 288.44 39.65 277.04 31.14 297.89 31.14 296.18 32.41 300.26 35.46 312.46 31.14 323.01 31.14 303.66 38"/><path class="cls-15" d="M210.8,31.14H192.37l1.82,1.35-23.4,14.93h10.33l-.93-1.22L185,42.84h16.85l1.74,2.75-2.48,1.83h18.58Zm-22.49,9.35,8.32-5.86,3.71,5.86Z"/><polygon class="cls-16" points="174.52 31.14 171.84 33.13 171.04 34.92 166.34 45.43 166.38 45.4 167.62 47.42 147.92 47.42 150.71 45.44 151.05 44.68 155.68 34.32 143.97 44.38 140.44 47.42 129.62 47.42 124.36 35.66 119.94 45.54 119.93 45.57 121.33 47.42 110.4 47.42 113.25 45.4 113.47 44.91 118.76 33.07 117.63 31.14 138.06 31.14 142.23 40.48 153.09 31.14 174.52 31.14"/><path d="M608.9,47.92H588l3.33-2.45L590,43.34H573.53l-4.22,3,1.22,1.61h-13l24.23-15.46-2.45-1.82H599.5Zm-17.9-1h16.22l-8.31-15.28h-14l-1.41,1,.44-1h-1.61l1.18.88-22.56,14.4h7.6l-.63-.83,5.33-3.75H590.5l2.13,3.38ZM589.65,41H575.13l10-7.07Zm-11.36-1h9.54l-2.94-4.64Z"/><path d="M684.35,47.93H653.9l1.85-4.13h19.79a1.25,1.25,0,0,0,1.14-.74.59.59,0,0,0,0-.56.58.58,0,0,0-.49-.27H660.79a2.82,2.82,0,0,1-2.57-4l1.24-2.79a8.16,8.16,0,0,1,7.44-4.82H697l-1.54,3.44h-21a1,1,0,0,0-.94.61h0a.57.57,0,0,0,0,.55.58.58,0,0,0,.49.27h15.31a3.53,3.53,0,0,1,3.23,5l-1.31,2.93A7.62,7.62,0,0,1,684.35,47.93Zm-28.91-1h28.91a6.64,6.64,0,0,0,6-3.92l1.31-2.93a2.53,2.53,0,0,0-2.32-3.56H674.07a1.58,1.58,0,0,1-1.44-2.23h0a2,2,0,0,1,1.85-1.2h20.35l.64-1.44H666.9a7.14,7.14,0,0,0-6.52,4.23l-1.25,2.79a1.82,1.82,0,0,0,1.66,2.56h15.35a1.59,1.59,0,0,1,1.45,2.24,2.27,2.27,0,0,1-2.05,1.33H656.4Z"/><path d="M560.73,47.92H542.18l3.21-2.78,1.79-4H537l-1.89,4.24,1.51,2.55H518l3.16-2.71L526.62,33l-1.83-2.4H544l-3.49,2.6L538.83,37H549l1.72-3.87-1.9-2.49h19.22l-3.32,2.46-5.5,12.29Zm-15.87-1H559l-.86-1.47,5.82-13,1.09-.81H550.87l1,1.36-2.24,5H537.29l2.42-5.41,1.27-1H526.81l1,1.27-5.85,13-1.2,1h14.13L534,45.44l2.36-5.31h12.38l-2.59,5.69Z"/><path d="M644.59,47.92H615.82a3.7,3.7,0,0,1-3.39-5.21l4.27-9.55-1.47-2.52h19l-3.62,2.7-4.41,9.88a.38.38,0,0,0,0,.38.4.4,0,0,0,.35.19h14.69a2.46,2.46,0,0,0,2.26-1.46l4.14-9.25-1.43-2.44h11.92l-3.3,2.44-5.14,11.54A5.6,5.6,0,0,1,644.59,47.92ZM617,31.64l.85,1.46-4.47,10a2.67,2.67,0,0,0,.19,2.57,2.72,2.72,0,0,0,2.28,1.23h28.77a4.58,4.58,0,0,0,4.2-2.71l5.26-11.78,1.06-.79H648l.8,1.37-4.34,9.73a3.48,3.48,0,0,1-3.18,2H626.57a1.42,1.42,0,0,1-1.3-2l4.53-10.12,1.4-1Z"/><path d="M718.51,47.92H699.93l3.16-2.71,5-11.13H696.53l1.54-3.44h36.78l-1.53,3.44H722l-5,11.29Zm-15.88-1h14.13l-.88-1.48,5.51-12.36h11.28l.64-1.44h-34.6l-.64,1.44H709.6l-5.77,12.81Z"/><path d="M168.51,47.92H146.35l4-2.8,4-9L140.63,47.92H129.3l-4.94-11-3.85,8.62,1.83,2.41H108.83l4-2.84,5.35-12-1.44-2.46h21.62l4,9,10.5-9H176l-3.79,2.82-5.31,11.88Zm-3.34-1h1.56l-.49-.79Zm-15.68,0h15.66l.73-1.69,5.56-12.42L173,31.64H153.28L142.05,41.3l-4.31-9.66H118.5l.82,1.4-5.67,12.69L112,46.92h8.36l-1-1.25.08-.25,4.91-11L130,46.92h10.3l16.8-14.43-5.94,13.28Z"/><path d="M269.26,47.92H245.43l2.36-1.76-4.56-3.41-11.21,4,1.62,1.19H215.11l23.75-8.42L227,30.64h23.87l-2.38,1.78,3.33,2.48,12.11-4.26h13.46l-21.21,7.52Zm-20.81-1h17.8l-12.17-9.07,17.49-6.21H264L251.65,36l-4.84-3.61,1-.77H230L241,39.81l-20.05,7.11h9.69l-.68-.5,13.48-4.79,6.07,4.53Z"/><path d="M317.79,47.92H294l2.37-1.76-4.57-3.41-11.21,4,1.62,1.19H263.64l23.75-8.42-11.85-8.86H299.4L297,32.42l3.33,2.48,12.11-4.26h13.46l-21.21,7.52Zm-20.81-1h17.8l-12.17-9.07,17.49-6.21h-7.55L300.18,36l-4.84-3.61,1-.77H278.55l10.94,8.17-20,7.11h9.68l-.68-.5,13.48-4.79L298,46.16Z"/><path d="M220.5,47.92H199.56l3.33-2.45-1.34-2.13H185.13l-4.23,3,1.23,1.61h-13l24.23-15.46-2.45-1.82H211.1Zm-17.9-1h16.22L210.5,31.64H193.88l1.19.89L172.5,46.92h7.61l-.63-.83,5.33-3.75H202.1l2.13,3.38ZM201.25,41H186.73l10-7.07Zm-11.36-1h9.54l-2.94-4.64Z"/></g></g></svg>