<svg width="500" height="100" xmlns="http://www.w3.org/2000/svg" viewBox="0 0 644.66 97.43"><defs><style>.cls-1{fill:#F5F5F5;}</style></defs><g id="Layer_2" data-name="Layer 2"><g id="Layer_2-2" data-name="Layer 2"><polygon class="cls-1" points="38.29 12 65.81 12 69 1.44 35.43 1.44 29 1.44 19.35 1.44 27.17 7.49 12.09 57.44 24.57 57.44 31.24 35.36 57.16 35.36 60.35 24.8 34.43 24.8 38.29 12"/><path class="cls-1" d="M108.64,1.44,98.91,33.68C96,43.36,90.81,48.32,83.45,48.32s-9.59-4.8-6.62-14.64L86.56,1.44H74.08L63.79,35.52C59.3,50.4,65.22,58.88,80.18,58.88s26.16-8.48,30.65-23.36L121.12,1.44Z"/><polygon class="cls-1" points="160.08 46.88 132.96 46.88 146.68 1.44 140.63 1.44 134.2 1.44 124.55 1.44 132.37 7.49 117.29 57.44 156.89 57.44 160.08 46.88"/><polygon class="cls-1" points="160.08 57.44 199.68 57.44 202.87 46.88 175.75 46.88 189.47 1.44 183.83 1.44 176.99 1.44 167.75 1.44 175.24 7.23 160.08 57.44"/><polygon class="cls-1" points="230.07 57.44 242.55 57.44 256.27 12 274.43 12 277.62 1.44 228.66 1.44 225.47 12 243.79 12 230.07 57.44"/><polygon class="cls-1" points="267.11 57.44 279.59 57.44 286.62 34.16 309.82 34.16 302.79 57.44 315.27 57.44 332.18 1.44 328.85 1.44 319.7 1.44 312.76 1.44 318.39 5.79 312.99 23.68 289.79 23.68 296.5 1.44 294.77 1.44 284.02 1.44 278.69 1.44 283.01 4.78 267.11 57.44"/><path class="cls-1" d="M326.55,57.44h12.32l6.57-21.76h9.92c6.16,0,7.91,2.16,6.05,8.32l-4.06,13.44h12.56l4.4-14.56c2.15-7.12.3-11.6-6.08-12.72,6-1.6,12.69-6,15-13.76,3.05-10.08-3.4-15-14.12-15H335.91L342,6.17Zm26.09-45.6h10.88c5.44,0,7.75,2.16,6.37,6.72s-5,6.8-10.45,6.8H348.56Z"/><path class="cls-1" d="M404.68,58.88c16,0,31.5-10.8,37.13-29.44C447.24,11.44,438.45,0,422.45,0S391.1,11.12,385.56,29.44C379.86,48.32,388.6,58.88,404.68,58.88Zm-6.15-29.44c3.62-12,11.64-19,20.76-19s13.21,7.12,9.64,19c-3.72,12.32-12.13,19-21.09,19S394.85,41.6,398.53,29.44Z"/><polygon class="cls-1" points="449.09 1.44 445.9 12 464.23 12 450.51 57.44 462.99 57.44 476.71 12 494.87 12 498.06 1.44 449.09 1.44"/><polygon class="cls-1" points="504.71 57.44 517.19 57.44 530.91 12 549.07 12 552.26 1.44 503.3 1.44 500.11 12 518.43 12 504.71 57.44"/><polygon class="cls-1" points="544.96 57.44 584.56 57.44 587.75 46.88 560.63 46.88 574.35 1.44 571.55 1.44 561.87 1.44 555.47 1.44 560.66 5.45 544.96 57.44"/><polygon class="cls-1" points="641.47 12 644.66 1.44 611.19 1.44 604.66 1.44 595.11 1.44 602.85 7.42 587.75 57.44 629.03 57.44 632.22 46.88 603.42 46.88 607.31 34 633.63 34 636.77 23.6 610.45 23.6 613.95 12 641.47 12"/><path class="cls-1" d="M257.77,70.46H246.39l-7.94,26.3h5.86l3-10.07h5.52c5.41,0,10.54-2.18,12.33-8.11S263.33,70.46,257.77,70.46Zm1.42,8.12c-.61,2-2.19,3.26-5,3.26h-5.41l2-6.49h5.41C259.08,75.35,259.79,76.58,259.19,78.58Z"/><polygon class="cls-1" points="284.95 75.42 297.87 75.42 299.37 70.46 280.59 70.46 272.65 96.76 292.03 96.76 293.53 91.8 280.01 91.8 281.83 85.75 294.19 85.75 295.67 80.87 283.31 80.87 284.95 75.42"/><path class="cls-1" d="M333,77.49c1.43-4.74-1.6-7-6.63-7H314.31l-7.94,26.3h5.78l3.09-10.22h4.66c2.89,0,3.71,1,2.84,3.91l-1.91,6.31h5.9l2.06-6.84c1-3.34.15-5.45-2.85-6A9.86,9.86,0,0,0,333,77.49Zm-6.28,1c-.66,2.18-2.36,3.19-4.91,3.19H316.7l1.92-6.34h5.11C326.28,75.35,327.37,76.36,326.72,78.5Z"/><polygon class="cls-1" points="352.65 75.42 365.58 75.42 367.07 70.46 348.29 70.46 340.35 96.76 346.21 96.76 349.34 86.39 361.51 86.39 363.01 81.43 350.84 81.43 352.65 75.42"/><path class="cls-1" d="M392.21,69.79c-7.55,0-14.72,5.22-17.32,13.82-2.67,8.86,1.43,13.82,9,13.82s14.79-5.07,17.43-13.82C403.85,75.16,399.73,69.79,392.21,69.79Zm3,13.82c-1.74,5.78-5.69,8.9-9.9,8.9s-6.09-3.19-4.37-8.9,5.47-8.9,9.75-8.9S396.93,78.05,395.25,83.61Z"/><path class="cls-1" d="M435.69,77.49c1.43-4.74-1.6-7-6.64-7H417l-7.94,26.3h5.78l3.09-10.22h4.66c2.89,0,3.71,1,2.84,3.91l-1.91,6.31h5.9l2.06-6.84c1-3.34.14-5.45-2.85-6A9.86,9.86,0,0,0,435.69,77.49Zm-6.28,1c-.66,2.18-2.36,3.19-4.91,3.19h-5.11l1.92-6.34h5.11C429,75.35,430.05,76.36,429.41,78.5Z"/><path class="cls-1" d="M472.54,70.46,461.7,88.19c-.62,1.09-1.07,2-1.48,2.82.11-.86.14-1.73.17-2.82L460,70.46h-9L443,96.76h5.52l5.1-16.87c.4-1.35.7-2.59,1-3.79l.41,20.66h6.84l12.48-20.7c-.44,1.2-.86,2.48-1.26,3.79L468,96.76h5.56l7.94-26.3Z"/><path class="cls-1" d="M506.86,70.46l-18.34,26.3h6.24l4.3-6.54h10.55l.32,6.54h6.46l-2.46-26.3Zm-4.61,14.92,4.67-7.14c.77-1.17,1.44-2.14,2-3.16-.05,1,0,2,.06,3.16l.36,7.14Z"/><path class="cls-1" d="M549.63,70.46,545.24,85a34,34,0,0,0-1,3.91l-4.39-18.45h-8.53l-7.94,26.3h5.75l5.08-16.83a31.42,31.42,0,0,0,.92-3.68L540,96.76h7.44l7.94-26.3Z"/><path class="cls-1" d="M573.74,92.55c-4.17,0-6.08-3.38-4.36-9.09s5.7-8.79,9.87-8.79c3.57,0,4.94,2.18,4.39,5.37h6c1.38-6.54-2.31-10.25-8.92-10.25-7.55,0-14.88,5.1-17.46,13.67-2.68,8.86.85,14,8.74,14A16.51,16.51,0,0,0,587.76,86.8h-5.9A9.05,9.05,0,0,1,573.74,92.55Z"/><polygon class="cls-1" points="596.97 96.76 616.35 96.76 617.85 91.8 604.33 91.8 606.15 85.75 618.51 85.75 619.99 80.87 607.63 80.87 609.27 75.42 622.19 75.42 623.69 70.46 604.91 70.46 596.97 96.76"/><polygon class="cls-1" points="243.16 70.46 241.68 75.35 6.55 75.35 8.16 70.39 243.16 70.46"/><polygon class="cls-1" points="4.78 81.13 239.92 81.21 238.44 86.09 3.3 86.09 4.78 81.13"/><polygon class="cls-1" points="240.6 91.87 240.6 96.76 0 96.76 1.52 91.8 240.6 91.87"/></g></g></svg>