<svg width="32" height="32" viewBox="0 0 32 32" fill="none" xmlns="http://www.w3.org/2000/svg">
<mask id="path-1-inside-1_1_142" fill="white">
<path d="M27.783 0.0478334C27.4161 0.159276 27.0689 0.434606 26.2565 1.27371C25.2934 2.25702 25.2868 2.27669 25.9223 2.93224L26.3613 3.39112L24.8806 4.87266L23.3999 6.35419L23.0461 6.04608C22.6203 5.67242 21.8013 5.25943 21.192 5.11521C20.6023 4.97099 19.5606 4.97099 18.9906 5.10865C18.4534 5.23976 17.9358 5.46265 17.4444 5.78386C17.1954 5.9412 14.4175 8.67482 9.62817 13.4603L2.1854 20.8877L1.96919 20.8155C1.68746 20.7172 1.13057 20.7762 0.802979 20.9467C0.501599 21.0974 0.219874 21.4055 0.082288 21.7202C-0.042195 22.0283 -0.0225398 22.638 0.121598 22.9526C0.265737 23.2607 8.63886 31.6911 8.9861 31.8812C9.28093 32.0385 10.0999 32.0385 10.3882 31.8877C10.6568 31.7435 10.9778 31.4157 11.1089 31.1666C11.253 30.8847 11.2989 30.3275 11.2006 30.0325L11.122 29.7834L18.5582 22.3364C22.6465 18.2392 26.0861 14.7452 26.2041 14.5747C26.7413 13.7684 26.9903 12.9359 26.9903 11.9394C26.9903 10.9627 26.7806 10.2154 26.2827 9.41559C26.0927 9.10749 26.2565 9.25171 27.3572 10.3465C28.6348 11.6051 28.851 11.7756 29.1327 11.6838C29.2048 11.6641 29.6437 11.2511 30.122 10.7726C30.8296 10.058 30.9868 9.86136 30.9868 9.71059C30.9868 9.55326 30.7379 9.27137 29.4472 7.97339C28.602 7.12774 27.9075 6.40008 27.9075 6.3673C27.9075 6.33452 28.0582 6.15097 28.2482 5.96086L28.5889 5.61342L29.0213 6.03953C29.303 6.32141 29.5192 6.47874 29.6634 6.50497C29.8665 6.5443 29.9123 6.51152 30.7968 5.63964C31.3013 5.13487 31.7796 4.61044 31.8582 4.46622C32.0417 4.11878 32.0482 3.46323 31.8713 3.08957C31.701 2.72902 29.3358 0.362496 28.9623 0.172387C28.6282 0.00850059 28.1041 -0.0504986 27.783 0.0478334ZM29.683 2.25047C30.4955 3.05679 30.9279 3.53534 30.9541 3.65334C31.013 3.91556 30.8755 4.13189 30.2727 4.72844L29.742 5.25287L28.2482 3.75823L26.761 2.27014L27.3899 1.64737C28.2875 0.762379 28.1565 0.729602 29.683 2.25047ZM27.5144 4.53177L27.8748 4.89232L26.381 6.38697L24.8937 7.87506L24.5203 7.49484L24.1403 7.12118L25.6144 5.6462C26.4268 4.83332 27.1017 4.17122 27.1213 4.17122C27.141 4.17122 27.3179 4.33511 27.5144 4.53177ZM21.192 6.21653C21.9323 6.45908 22.2534 6.70163 23.6423 8.06517C25.0968 9.50081 25.4572 9.95314 25.7192 10.6349C25.9289 11.1856 26.001 12.1558 25.8765 12.6999C25.7848 13.1129 25.4899 13.8078 25.4113 13.8078C25.3785 13.8078 25.2934 13.6832 25.2148 13.5259C24.9527 13.0211 24.1403 11.8214 23.603 11.1528C22.9544 10.3465 21.5916 8.98949 20.7989 8.35361C20.1961 7.87506 19.1216 7.14085 18.532 6.81307C18.3551 6.70819 18.2109 6.6033 18.2109 6.57708C18.2109 6.47874 18.9382 6.1903 19.4099 6.10508C19.9799 6.0002 20.6547 6.03953 21.192 6.21653ZM28.4317 8.3995L29.7092 9.67781L29.3292 10.0515L28.9558 10.4317L27.6651 9.14026L26.3679 7.84228L26.7282 7.48173C26.9248 7.28507 27.1017 7.12118 27.1213 7.12118C27.141 7.12118 27.7306 7.69806 28.4317 8.3995ZM18.8923 8.26183C20.8644 9.5467 22.8168 11.5658 24.0354 13.5914C24.2516 13.9585 24.4875 14.365 24.5465 14.4961L24.6579 14.7321L19.6916 19.7011L14.7254 24.6702L14.1358 24.3555C12.7992 23.6213 11.823 22.8871 10.5847 21.6809C9.32679 20.4484 8.37679 19.216 7.61679 17.8197L7.31541 17.269L12.2882 12.2934L17.2544 7.3244L17.8047 7.61939C18.1061 7.78328 18.5975 8.07172 18.8923 8.26183ZM6.91575 18.7047C8.44231 21.3269 10.9451 23.8048 13.4544 25.1815C13.6902 25.3126 13.8868 25.4437 13.8868 25.4699C13.8868 25.4896 13.4413 25.955 12.904 26.4926L11.9213 27.4759L8.21955 23.7721L4.51781 20.0682L5.51368 19.0718C6.06402 18.5211 6.52265 18.0688 6.5292 18.0688C6.53575 18.0688 6.70609 18.3572 6.91575 18.7047ZM10.7878 28.6034L10.4144 28.9837L6.71265 25.2798L3.01091 21.576L3.38436 21.2023L3.76436 20.8221L7.4661 24.5259L11.1678 28.2298L10.7878 28.6034ZM6.00506 26.0206C9.87058 29.8818 10.2178 30.2489 10.2178 30.4455C10.2178 30.734 9.96886 30.9831 9.68058 30.9831C9.48403 30.9831 9.11713 30.6356 5.25816 26.7679C1.32057 22.8346 1.04539 22.5462 1.04539 22.3364C1.04539 22.0218 1.2616 21.8054 1.56298 21.8054C1.78574 21.8054 2.0085 22.0218 6.00506 26.0206Z"/>
</mask>
<path d="M27.783 0.0478334C27.4161 0.159276 27.0689 0.434606 26.2565 1.27371C25.2934 2.25702 25.2868 2.27669 25.9223 2.93224L26.3613 3.39112L24.8806 4.87266L23.3999 6.35419L23.0461 6.04608C22.6203 5.67242 21.8013 5.25943 21.192 5.11521C20.6023 4.97099 19.5606 4.97099 18.9906 5.10865C18.4534 5.23976 17.9358 5.46265 17.4444 5.78386C17.1954 5.9412 14.4175 8.67482 9.62817 13.4603L2.1854 20.8877L1.96919 20.8155C1.68746 20.7172 1.13057 20.7762 0.802979 20.9467C0.501599 21.0974 0.219874 21.4055 0.082288 21.7202C-0.042195 22.0283 -0.0225398 22.638 0.121598 22.9526C0.265737 23.2607 8.63886 31.6911 8.9861 31.8812C9.28093 32.0385 10.0999 32.0385 10.3882 31.8877C10.6568 31.7435 10.9778 31.4157 11.1089 31.1666C11.253 30.8847 11.2989 30.3275 11.2006 30.0325L11.122 29.7834L18.5582 22.3364C22.6465 18.2392 26.0861 14.7452 26.2041 14.5747C26.7413 13.7684 26.9903 12.9359 26.9903 11.9394C26.9903 10.9627 26.7806 10.2154 26.2827 9.41559C26.0927 9.10749 26.2565 9.25171 27.3572 10.3465C28.6348 11.6051 28.851 11.7756 29.1327 11.6838C29.2048 11.6641 29.6437 11.2511 30.122 10.7726C30.8296 10.058 30.9868 9.86136 30.9868 9.71059C30.9868 9.55326 30.7379 9.27137 29.4472 7.97339C28.602 7.12774 27.9075 6.40008 27.9075 6.3673C27.9075 6.33452 28.0582 6.15097 28.2482 5.96086L28.5889 5.61342L29.0213 6.03953C29.303 6.32141 29.5192 6.47874 29.6634 6.50497C29.8665 6.5443 29.9123 6.51152 30.7968 5.63964C31.3013 5.13487 31.7796 4.61044 31.8582 4.46622C32.0417 4.11878 32.0482 3.46323 31.8713 3.08957C31.701 2.72902 29.3358 0.362496 28.9623 0.172387C28.6282 0.00850059 28.1041 -0.0504986 27.783 0.0478334ZM29.683 2.25047C30.4955 3.05679 30.9279 3.53534 30.9541 3.65334C31.013 3.91556 30.8755 4.13189 30.2727 4.72844L29.742 5.25287L28.2482 3.75823L26.761 2.27014L27.3899 1.64737C28.2875 0.762379 28.1565 0.729602 29.683 2.25047ZM27.5144 4.53177L27.8748 4.89232L26.381 6.38697L24.8937 7.87506L24.5203 7.49484L24.1403 7.12118L25.6144 5.6462C26.4268 4.83332 27.1017 4.17122 27.1213 4.17122C27.141 4.17122 27.3179 4.33511 27.5144 4.53177ZM21.192 6.21653C21.9323 6.45908 22.2534 6.70163 23.6423 8.06517C25.0968 9.50081 25.4572 9.95314 25.7192 10.6349C25.9289 11.1856 26.001 12.1558 25.8765 12.6999C25.7848 13.1129 25.4899 13.8078 25.4113 13.8078C25.3785 13.8078 25.2934 13.6832 25.2148 13.5259C24.9527 13.0211 24.1403 11.8214 23.603 11.1528C22.9544 10.3465 21.5916 8.98949 20.7989 8.35361C20.1961 7.87506 19.1216 7.14085 18.532 6.81307C18.3551 6.70819 18.2109 6.6033 18.2109 6.57708C18.2109 6.47874 18.9382 6.1903 19.4099 6.10508C19.9799 6.0002 20.6547 6.03953 21.192 6.21653ZM28.4317 8.3995L29.7092 9.67781L29.3292 10.0515L28.9558 10.4317L27.6651 9.14026L26.3679 7.84228L26.7282 7.48173C26.9248 7.28507 27.1017 7.12118 27.1213 7.12118C27.141 7.12118 27.7306 7.69806 28.4317 8.3995ZM18.8923 8.26183C20.8644 9.5467 22.8168 11.5658 24.0354 13.5914C24.2516 13.9585 24.4875 14.365 24.5465 14.4961L24.6579 14.7321L19.6916 19.7011L14.7254 24.6702L14.1358 24.3555C12.7992 23.6213 11.823 22.8871 10.5847 21.6809C9.32679 20.4484 8.37679 19.216 7.61679 17.8197L7.31541 17.269L12.2882 12.2934L17.2544 7.3244L17.8047 7.61939C18.1061 7.78328 18.5975 8.07172 18.8923 8.26183ZM6.91575 18.7047C8.44231 21.3269 10.9451 23.8048 13.4544 25.1815C13.6902 25.3126 13.8868 25.4437 13.8868 25.4699C13.8868 25.4896 13.4413 25.955 12.904 26.4926L11.9213 27.4759L8.21955 23.7721L4.51781 20.0682L5.51368 19.0718C6.06402 18.5211 6.52265 18.0688 6.5292 18.0688C6.53575 18.0688 6.70609 18.3572 6.91575 18.7047ZM10.7878 28.6034L10.4144 28.9837L6.71265 25.2798L3.01091 21.576L3.38436 21.2023L3.76436 20.8221L7.4661 24.5259L11.1678 28.2298L10.7878 28.6034ZM6.00506 26.0206C9.87058 29.8818 10.2178 30.2489 10.2178 30.4455C10.2178 30.734 9.96886 30.9831 9.68058 30.9831C9.48403 30.9831 9.11713 30.6356 5.25816 26.7679C1.32057 22.8346 1.04539 22.5462 1.04539 22.3364C1.04539 22.0218 1.2616 21.8054 1.56298 21.8054C1.78574 21.8054 2.0085 22.0218 6.00506 26.0206Z" fill="#D90429" stroke="#D90429" stroke-width="10" mask="url(#path-1-inside-1_1_142)"/>
<path d="M14.6402 15.7076L14.6728 15.675L14.6402 15.7076Z" fill="#D90429" stroke="#D90429" stroke-width="5"/>
</svg>
