<svg width="40" height="40" viewBox="0 0 32 32" fill="none" xmlns="http://www.w3.org/2000/svg">
<path d="M27.2592 6.35983H18.613L11.8514 0L6.86759 4.68765L9.33876 7.01197C6.68174 7.84094 4.36053 9.41932 2.69062 11.5326C1.02072 13.6458 0.0831275 16.1915 0.00527416 18.8235C-0.0725791 21.4555 0.713086 24.0462 2.25548 26.2435C3.79788 28.4409 6.0222 30.1382 8.62611 31.1048C11.23 32.0715 14.0872 32.2605 16.8094 31.6463C19.5315 31.0321 21.9866 29.6444 23.8409 27.6719C25.6952 25.6993 26.8588 23.2376 27.1735 20.6212C27.4882 18.0049 26.9387 15.3609 25.5999 13.0485H27.2592V14.1633H32V5.24504H27.2592V6.35983ZM8.53874 4.68765L11.8514 1.57184L12.7937 2.45809L10.2454 4.8493L11.0869 5.64079L13.6292 3.24401L16.9419 6.35983H13.6292C12.6324 6.36231 11.6389 6.46698 10.6662 6.67196L8.53874 4.68765ZM27.2592 11.9337H13.6292C11.7722 11.9299 9.97629 12.5572 8.57195 13.7C7.16761 14.8428 6.24939 16.4242 5.98631 18.1532C5.72323 19.8823 6.133 21.6425 7.14018 23.1099C8.14736 24.5773 9.68418 25.6531 11.4678 26.1394C13.2513 26.6257 15.1616 26.4896 16.847 25.7563C18.5324 25.0229 19.8794 23.7417 20.6402 22.1483C21.401 20.555 21.5242 18.7568 20.9873 17.0848C20.4504 15.4127 19.2895 13.9794 17.7182 13.0485H24.2369C25.6794 15.255 26.3031 17.8493 26.0101 20.425C25.7172 23.0006 24.5241 25.4121 22.618 27.2816C20.7118 29.1512 18.2001 30.3732 15.4764 30.7563C12.7527 31.1394 9.97081 30.6618 7.56657 29.3985C5.16233 28.1352 3.27154 26.1574 2.19038 23.775C1.10922 21.3926 0.898782 18.7402 1.59202 16.2333C2.28527 13.7264 3.84303 11.5066 6.02129 9.92161C8.19954 8.33663 10.8752 7.47602 13.6292 7.47461H27.2592V11.9337ZM15.5611 22.6301C14.9654 22.9249 14.3024 23.079 13.6292 23.079C12.9561 23.079 12.293 22.9249 11.6973 22.6301L13.1314 20.7739C13.4541 20.878 13.8044 20.878 14.127 20.7739L15.5611 22.6301ZM14.2218 17.6135V15.3282C14.8874 15.4193 15.5194 15.6612 16.0635 16.0331C16.6075 16.405 17.0473 16.8957 17.3449 17.463L15.0337 18.1709C14.8251 17.9148 14.5436 17.7196 14.2218 17.608V17.6135ZM12.2247 18.1709L9.91359 17.463C10.2104 16.8947 10.6499 16.4028 11.194 16.0299C11.7381 15.657 12.3705 15.4143 13.0366 15.3227V17.608C12.7156 17.7181 12.4341 17.9113 12.2247 18.1654V18.1709ZM13.6292 19.7372C13.512 19.7372 13.3974 19.7045 13.3 19.6433C13.2025 19.582 13.1266 19.495 13.0817 19.3931C13.0369 19.2913 13.0251 19.1792 13.048 19.0711C13.0709 18.9629 13.1273 18.8636 13.2102 18.7857C13.2931 18.7077 13.3987 18.6546 13.5136 18.6331C13.6286 18.6116 13.7477 18.6227 13.856 18.6648C13.9643 18.707 14.0568 18.7785 14.122 18.8701C14.1871 18.9618 14.2218 19.0696 14.2218 19.1798C14.2218 19.3276 14.1594 19.4694 14.0483 19.5739C13.9371 19.6785 13.7864 19.7372 13.6292 19.7372ZM13.0366 14.1967C12.1188 14.2941 11.2437 14.6139 10.4968 15.1249C9.74987 15.6359 9.15685 16.3206 8.77578 17.1119L7.63798 16.7607C8.10171 15.7463 8.84811 14.8684 9.79836 14.2199C10.7486 13.5714 11.8674 13.1763 13.0366 13.0764V14.1967ZM8.40244 18.1709C8.21826 19.022 8.27215 19.9035 8.55886 20.7291C8.84556 21.5547 9.35525 22.2962 10.038 22.8809L9.33876 23.7839C8.64051 23.2097 8.08056 22.502 7.69632 21.708C7.31207 20.9141 7.11237 20.0522 7.11056 19.1798C7.11101 18.7239 7.16668 18.2694 7.27649 17.8253L8.40244 18.1709ZM9.48099 19.1798C9.48157 18.9573 9.50339 18.7353 9.54617 18.5165L11.8514 19.2244C11.8573 19.5474 11.9645 19.8615 12.1596 20.1274L10.7373 21.9668C10.3411 21.6044 10.0258 21.1711 9.81009 20.6926C9.59434 20.214 9.48245 19.6996 9.48099 19.1798ZM10.9981 23.5386C11.7992 23.9698 12.7062 24.1966 13.6292 24.1966C14.5522 24.1966 15.4593 23.9698 16.2604 23.5386L16.9597 24.4416C15.9541 25.0107 14.8028 25.3114 13.6292 25.3114C12.4557 25.3114 11.3043 25.0107 10.2988 24.4416L10.9981 23.5386ZM16.5211 21.9668L15.093 20.1274C15.2902 19.8622 15.3994 19.548 15.407 19.2244L17.7182 18.5165C17.759 18.7355 17.7788 18.9575 17.7775 19.1798C17.776 19.6996 17.6641 20.214 17.4484 20.6926C17.2326 21.1711 16.9174 21.6044 16.5211 21.9668ZM18.9627 19.1798C18.9634 18.841 18.9277 18.503 18.856 18.1709L19.982 17.8253C20.0918 18.2694 20.1474 18.7239 20.1479 19.1798C20.1461 20.0522 19.9464 20.9141 19.5621 21.708C19.1779 22.502 18.6179 23.2097 17.9197 23.7839L17.2204 22.8809C17.7682 22.4116 18.2061 21.8402 18.506 21.203C18.806 20.5657 18.9615 19.8767 18.9627 19.1798ZM18.4827 17.1119C18.1016 16.3206 17.5086 15.6359 16.7617 15.1249C16.0148 14.6139 15.1396 14.2941 14.2218 14.1967V13.082C15.391 13.1819 16.5099 13.577 17.4601 14.2255C18.4103 14.874 19.1567 15.7518 19.6205 16.7663L18.4827 17.1119ZM28.4444 6.35983H30.8148V13.0485H28.4444V6.35983Z" fill="#D90429"/>
<path d="M24.2961 18.6224H23.1109V19.7372H24.2961V18.6224Z" fill="#D90429"/>
<path d="M4.14752 18.6224H2.96231V19.7372H4.14752V18.6224Z" fill="#D90429"/>
<path d="M26.0739 8.58936H24.8887V9.70414H26.0739V8.58936Z" fill="#D90429"/>
<path d="M23.7035 8.58936H18.3701V9.70414H23.7035V8.58936Z" fill="#D90429"/>
<path d="M14.2218 28.098H13.0366V29.2128H14.2218V28.098Z" fill="#D90429"/>
</svg>
